<mxfile host="app.diagrams.net" agent="Mozilla/5.0 (Windows NT 10.0; Win64; x64) AppleWebKit/537.36 (KHTML, like Gecko) Chrome/131.0.0.0 Safari/537.36 Edg/131.0.0.0" version="24.8.9">
  <diagram name="Page-1" id="74e2e168-ea6b-b213-b513-2b3c1d86103e">
    <mxGraphModel grid="1" page="1" gridSize="10" guides="1" tooltips="1" connect="1" arrows="1" fold="1" pageScale="1" pageWidth="1100" pageHeight="850" background="none" math="0" shadow="0">
      <root>
        <mxCell id="0" />
        <mxCell id="1" parent="0" />
        <mxCell id="77e6c97f196da883-1" value="&lt;font style=&quot;font-size: 13px;&quot;&gt;带泳道UML活动图&lt;/font&gt;" style="swimlane;html=1;childLayout=stackLayout;startSize=20;rounded=0;shadow=0;labelBackgroundColor=none;strokeWidth=1;fontFamily=Verdana;fontSize=8;align=center;" vertex="1" parent="1">
          <mxGeometry x="70" y="40" width="960" height="750" as="geometry" />
        </mxCell>
        <mxCell id="77e6c97f196da883-2" value="&lt;font style=&quot;font-size: 15px;&quot;&gt;客户&lt;/font&gt;" style="swimlane;html=1;startSize=20;" vertex="1" parent="77e6c97f196da883-1">
          <mxGeometry y="20" width="160" height="730" as="geometry" />
        </mxCell>
        <mxCell id="77e6c97f196da883-8" value="&lt;font style=&quot;font-size: 12px;&quot;&gt;用户下订单&lt;/font&gt;" style="rounded=1;whiteSpace=wrap;html=1;shadow=0;labelBackgroundColor=none;strokeWidth=1;fontFamily=Verdana;fontSize=8;align=center;" vertex="1" parent="77e6c97f196da883-2">
          <mxGeometry x="30" y="81.25" width="100" height="35" as="geometry" />
        </mxCell>
        <mxCell id="tVxDg_vbg_Na7_TElJBm-16" value="&lt;font style=&quot;font-size: 12px;&quot;&gt;货物验收&lt;/font&gt;" style="rounded=1;whiteSpace=wrap;html=1;shadow=0;labelBackgroundColor=none;strokeWidth=1;fontFamily=Verdana;fontSize=8;align=center;" vertex="1" parent="77e6c97f196da883-2">
          <mxGeometry x="30" y="510" width="100" height="37.5" as="geometry" />
        </mxCell>
        <mxCell id="tVxDg_vbg_Na7_TElJBm-17" value="&lt;font style=&quot;font-size: 12px;&quot;&gt;交款&lt;/font&gt;" style="rounded=1;whiteSpace=wrap;html=1;shadow=0;labelBackgroundColor=none;strokeWidth=1;fontFamily=Verdana;fontSize=8;align=center;" vertex="1" parent="77e6c97f196da883-2">
          <mxGeometry x="30" y="580" width="100" height="37.5" as="geometry" />
        </mxCell>
        <mxCell id="tVxDg_vbg_Na7_TElJBm-32" value="" style="endArrow=classic;html=1;rounded=0;exitX=0.5;exitY=1;exitDx=0;exitDy=0;entryX=0.5;entryY=0;entryDx=0;entryDy=0;" edge="1" parent="77e6c97f196da883-2" source="tVxDg_vbg_Na7_TElJBm-16" target="tVxDg_vbg_Na7_TElJBm-17">
          <mxGeometry width="50" height="50" relative="1" as="geometry">
            <mxPoint x="360" y="560" as="sourcePoint" />
            <mxPoint x="410" y="510" as="targetPoint" />
          </mxGeometry>
        </mxCell>
        <mxCell id="tVxDg_vbg_Na7_TElJBm-35" value="" style="ellipse;whiteSpace=wrap;html=1;aspect=fixed;fillColor=#000000;" vertex="1" parent="77e6c97f196da883-2">
          <mxGeometry x="65" y="30" width="30" height="30" as="geometry" />
        </mxCell>
        <mxCell id="tVxDg_vbg_Na7_TElJBm-37" value="" style="endArrow=classic;html=1;rounded=0;exitX=0.5;exitY=1;exitDx=0;exitDy=0;entryX=0.5;entryY=0;entryDx=0;entryDy=0;" edge="1" parent="77e6c97f196da883-2" source="tVxDg_vbg_Na7_TElJBm-35" target="77e6c97f196da883-8">
          <mxGeometry width="50" height="50" relative="1" as="geometry">
            <mxPoint x="120" y="460" as="sourcePoint" />
            <mxPoint x="170" y="410" as="targetPoint" />
          </mxGeometry>
        </mxCell>
        <mxCell id="egZM-A-JcMTh_OU8PHyn-2" style="edgeStyle=orthogonalEdgeStyle;rounded=0;orthogonalLoop=1;jettySize=auto;html=1;exitX=0.5;exitY=1;exitDx=0;exitDy=0;entryX=0.5;entryY=0;entryDx=0;entryDy=0;" edge="1" parent="77e6c97f196da883-2" source="egZM-A-JcMTh_OU8PHyn-1" target="tVxDg_vbg_Na7_TElJBm-16">
          <mxGeometry relative="1" as="geometry" />
        </mxCell>
        <mxCell id="egZM-A-JcMTh_OU8PHyn-1" value="&lt;span style=&quot;font-size: 12px;&quot;&gt;跟踪订单信息&lt;/span&gt;" style="rounded=1;whiteSpace=wrap;html=1;shadow=0;labelBackgroundColor=none;strokeWidth=1;fontFamily=Verdana;fontSize=8;align=center;" vertex="1" parent="77e6c97f196da883-2">
          <mxGeometry x="30" y="450" width="100" height="37.5" as="geometry" />
        </mxCell>
        <mxCell id="77e6c97f196da883-3" value="&lt;font style=&quot;font-size: 16px;&quot;&gt;销售部&lt;/font&gt;" style="swimlane;html=1;startSize=20;" vertex="1" parent="77e6c97f196da883-1">
          <mxGeometry x="160" y="20" width="160" height="730" as="geometry" />
        </mxCell>
        <mxCell id="77e6c97f196da883-11" value="&lt;font style=&quot;font-size: 12px;&quot;&gt;订单处理&lt;/font&gt;" style="rounded=1;whiteSpace=wrap;html=1;shadow=0;labelBackgroundColor=none;strokeWidth=1;fontFamily=Verdana;fontSize=8;align=center;" vertex="1" parent="77e6c97f196da883-3">
          <mxGeometry x="40" y="78.75" width="100" height="37.5" as="geometry" />
        </mxCell>
        <mxCell id="tVxDg_vbg_Na7_TElJBm-4" value="&lt;font style=&quot;font-size: 12px;&quot;&gt;产生物料需求&lt;/font&gt;" style="rounded=1;whiteSpace=wrap;html=1;shadow=0;labelBackgroundColor=none;strokeWidth=1;fontFamily=Verdana;fontSize=8;align=center;" vertex="1" parent="77e6c97f196da883-3">
          <mxGeometry x="40" y="150" width="100" height="37.5" as="geometry" />
        </mxCell>
        <mxCell id="tVxDg_vbg_Na7_TElJBm-5" value="&lt;font style=&quot;font-size: 12px;&quot;&gt;查询库存状态&lt;/font&gt;" style="rounded=1;whiteSpace=wrap;html=1;shadow=0;labelBackgroundColor=none;strokeWidth=1;fontFamily=Verdana;fontSize=8;align=center;" vertex="1" parent="77e6c97f196da883-3">
          <mxGeometry x="40" y="220" width="100" height="37.5" as="geometry" />
        </mxCell>
        <mxCell id="tVxDg_vbg_Na7_TElJBm-6" value="库存是&lt;br&gt;否足够" style="rhombus;whiteSpace=wrap;html=1;" vertex="1" parent="77e6c97f196da883-3">
          <mxGeometry x="35" y="290" width="110" height="45" as="geometry" />
        </mxCell>
        <mxCell id="tVxDg_vbg_Na7_TElJBm-15" value="&lt;font style=&quot;font-size: 12px;&quot;&gt;发布订单&lt;br&gt;执行状态&lt;/font&gt;" style="rounded=1;whiteSpace=wrap;html=1;shadow=0;labelBackgroundColor=none;strokeWidth=1;fontFamily=Verdana;fontSize=8;align=center;" vertex="1" parent="77e6c97f196da883-3">
          <mxGeometry x="35" y="450" width="100" height="37.5" as="geometry" />
        </mxCell>
        <mxCell id="tVxDg_vbg_Na7_TElJBm-18" value="" style="endArrow=classic;html=1;rounded=0;exitX=0.5;exitY=1;exitDx=0;exitDy=0;entryX=0.5;entryY=0;entryDx=0;entryDy=0;" edge="1" parent="77e6c97f196da883-3" source="77e6c97f196da883-11" target="tVxDg_vbg_Na7_TElJBm-4">
          <mxGeometry width="50" height="50" relative="1" as="geometry">
            <mxPoint x="140" y="360" as="sourcePoint" />
            <mxPoint x="190" y="310" as="targetPoint" />
          </mxGeometry>
        </mxCell>
        <mxCell id="tVxDg_vbg_Na7_TElJBm-21" value="" style="endArrow=classic;html=1;rounded=0;exitX=0.5;exitY=1;exitDx=0;exitDy=0;" edge="1" parent="77e6c97f196da883-3" source="tVxDg_vbg_Na7_TElJBm-4" target="tVxDg_vbg_Na7_TElJBm-5">
          <mxGeometry width="50" height="50" relative="1" as="geometry">
            <mxPoint x="140" y="360" as="sourcePoint" />
            <mxPoint x="190" y="310" as="targetPoint" />
          </mxGeometry>
        </mxCell>
        <mxCell id="tVxDg_vbg_Na7_TElJBm-22" value="" style="endArrow=classic;html=1;rounded=0;exitX=0.5;exitY=1;exitDx=0;exitDy=0;entryX=0.5;entryY=0;entryDx=0;entryDy=0;" edge="1" parent="77e6c97f196da883-3" source="tVxDg_vbg_Na7_TElJBm-5" target="tVxDg_vbg_Na7_TElJBm-6">
          <mxGeometry width="50" height="50" relative="1" as="geometry">
            <mxPoint x="140" y="360" as="sourcePoint" />
            <mxPoint x="190" y="310" as="targetPoint" />
          </mxGeometry>
        </mxCell>
        <mxCell id="77e6c97f196da883-4" value="&lt;font style=&quot;font-size: 16px;&quot;&gt;生产部&lt;/font&gt;" style="swimlane;html=1;startSize=20;" vertex="1" parent="77e6c97f196da883-1">
          <mxGeometry x="320" y="20" width="160" height="730" as="geometry" />
        </mxCell>
        <mxCell id="tVxDg_vbg_Na7_TElJBm-7" value="&lt;font style=&quot;font-size: 12px;&quot;&gt;生产产品&lt;/font&gt;" style="rounded=1;whiteSpace=wrap;html=1;shadow=0;labelBackgroundColor=none;strokeWidth=1;fontFamily=Verdana;fontSize=8;align=center;" vertex="1" parent="77e6c97f196da883-4">
          <mxGeometry x="30" y="293.75" width="100" height="37.5" as="geometry" />
        </mxCell>
        <mxCell id="tVxDg_vbg_Na7_TElJBm-40" value="是" style="text;html=1;align=center;verticalAlign=middle;whiteSpace=wrap;rounded=0;" vertex="1" parent="77e6c97f196da883-4">
          <mxGeometry x="-40" y="280" width="60" height="30" as="geometry" />
        </mxCell>
        <mxCell id="tVxDg_vbg_Na7_TElJBm-41" value="否" style="text;html=1;align=center;verticalAlign=middle;whiteSpace=wrap;rounded=0;" vertex="1" parent="77e6c97f196da883-4">
          <mxGeometry x="10" y="350" width="60" height="30" as="geometry" />
        </mxCell>
        <mxCell id="77e6c97f196da883-5" value="&lt;font style=&quot;font-size: 16px;&quot;&gt;采购部&lt;/font&gt;" style="swimlane;html=1;startSize=20;" vertex="1" parent="77e6c97f196da883-1">
          <mxGeometry x="480" y="20" width="160" height="730" as="geometry" />
        </mxCell>
        <mxCell id="tVxDg_vbg_Na7_TElJBm-8" value="&lt;font style=&quot;font-size: 12px;&quot;&gt;采购材料&lt;/font&gt;" style="rounded=1;whiteSpace=wrap;html=1;shadow=0;labelBackgroundColor=none;strokeWidth=1;fontFamily=Verdana;fontSize=8;align=center;" vertex="1" parent="77e6c97f196da883-5">
          <mxGeometry x="30" y="360" width="100" height="37.5" as="geometry" />
        </mxCell>
        <mxCell id="77e6c97f196da883-6" value="&lt;font style=&quot;font-size: 16px;&quot;&gt;成品库&lt;/font&gt;" style="swimlane;html=1;startSize=20;" vertex="1" parent="77e6c97f196da883-1">
          <mxGeometry x="640" y="20" width="160" height="730" as="geometry" />
        </mxCell>
        <mxCell id="tVxDg_vbg_Na7_TElJBm-9" value="&lt;font style=&quot;font-size: 12px;&quot;&gt;入库&lt;/font&gt;" style="rounded=1;whiteSpace=wrap;html=1;shadow=0;labelBackgroundColor=none;strokeWidth=1;fontFamily=Verdana;fontSize=8;align=center;" vertex="1" parent="77e6c97f196da883-6">
          <mxGeometry x="30" y="360" width="100" height="37.5" as="geometry" />
        </mxCell>
        <mxCell id="tVxDg_vbg_Na7_TElJBm-10" value="&lt;font style=&quot;font-size: 12px;&quot;&gt;发货&lt;/font&gt;" style="rounded=1;whiteSpace=wrap;html=1;shadow=0;labelBackgroundColor=none;strokeWidth=1;fontFamily=Verdana;fontSize=8;align=center;" vertex="1" parent="77e6c97f196da883-6">
          <mxGeometry x="30" y="510" width="100" height="37.5" as="geometry" />
        </mxCell>
        <mxCell id="tVxDg_vbg_Na7_TElJBm-29" value="" style="endArrow=classic;html=1;rounded=0;exitX=0.5;exitY=1;exitDx=0;exitDy=0;entryX=0.5;entryY=0;entryDx=0;entryDy=0;" edge="1" parent="77e6c97f196da883-6" source="tVxDg_vbg_Na7_TElJBm-9" target="tVxDg_vbg_Na7_TElJBm-10">
          <mxGeometry width="50" height="50" relative="1" as="geometry">
            <mxPoint x="-200" y="360" as="sourcePoint" />
            <mxPoint x="-150" y="310" as="targetPoint" />
          </mxGeometry>
        </mxCell>
        <mxCell id="77e6c97f196da883-7" value="&lt;font style=&quot;font-size: 16px;&quot;&gt;财务部&lt;/font&gt;" style="swimlane;html=1;startSize=20;" vertex="1" parent="77e6c97f196da883-1">
          <mxGeometry x="800" y="20" width="160" height="730" as="geometry" />
        </mxCell>
        <mxCell id="tVxDg_vbg_Na7_TElJBm-11" value="&lt;font style=&quot;font-size: 12px;&quot;&gt;收款&lt;/font&gt;" style="rounded=1;whiteSpace=wrap;html=1;shadow=0;labelBackgroundColor=none;strokeWidth=1;fontFamily=Verdana;fontSize=8;align=center;" vertex="1" parent="77e6c97f196da883-7">
          <mxGeometry x="30" y="580" width="100" height="37.5" as="geometry" />
        </mxCell>
        <mxCell id="tVxDg_vbg_Na7_TElJBm-12" value="&lt;font style=&quot;font-size: 12px;&quot;&gt;开发票&lt;/font&gt;" style="rounded=1;whiteSpace=wrap;html=1;shadow=0;labelBackgroundColor=none;strokeWidth=1;fontFamily=Verdana;fontSize=8;align=center;" vertex="1" parent="77e6c97f196da883-7">
          <mxGeometry x="30" y="640" width="100" height="37.5" as="geometry" />
        </mxCell>
        <mxCell id="tVxDg_vbg_Na7_TElJBm-34" value="" style="endArrow=classic;html=1;rounded=0;exitX=0.5;exitY=1;exitDx=0;exitDy=0;entryX=0.5;entryY=0;entryDx=0;entryDy=0;" edge="1" parent="77e6c97f196da883-7" source="tVxDg_vbg_Na7_TElJBm-11" target="tVxDg_vbg_Na7_TElJBm-12">
          <mxGeometry width="50" height="50" relative="1" as="geometry">
            <mxPoint x="-200" y="660" as="sourcePoint" />
            <mxPoint x="-150" y="610" as="targetPoint" />
          </mxGeometry>
        </mxCell>
        <mxCell id="tVxDg_vbg_Na7_TElJBm-38" value="" style="ellipse;whiteSpace=wrap;html=1;aspect=fixed;fillColor=#000000;" vertex="1" parent="77e6c97f196da883-7">
          <mxGeometry x="65" y="690" width="30" height="30" as="geometry" />
        </mxCell>
        <mxCell id="tVxDg_vbg_Na7_TElJBm-39" value="" style="endArrow=classic;html=1;rounded=0;exitX=0.5;exitY=1;exitDx=0;exitDy=0;entryX=0.5;entryY=0;entryDx=0;entryDy=0;" edge="1" parent="77e6c97f196da883-7" source="tVxDg_vbg_Na7_TElJBm-12" target="tVxDg_vbg_Na7_TElJBm-38">
          <mxGeometry width="50" height="50" relative="1" as="geometry">
            <mxPoint x="-330" y="390" as="sourcePoint" />
            <mxPoint x="-280" y="340" as="targetPoint" />
          </mxGeometry>
        </mxCell>
        <mxCell id="tVxDg_vbg_Na7_TElJBm-23" value="" style="endArrow=classic;html=1;rounded=0;exitX=1;exitY=0.5;exitDx=0;exitDy=0;entryX=0;entryY=0.5;entryDx=0;entryDy=0;" edge="1" parent="77e6c97f196da883-1" source="tVxDg_vbg_Na7_TElJBm-6" target="tVxDg_vbg_Na7_TElJBm-7">
          <mxGeometry width="50" height="50" relative="1" as="geometry">
            <mxPoint x="300" y="380" as="sourcePoint" />
            <mxPoint x="350" y="330" as="targetPoint" />
          </mxGeometry>
        </mxCell>
        <mxCell id="tVxDg_vbg_Na7_TElJBm-26" value="" style="endArrow=classic;html=1;rounded=0;exitX=0.5;exitY=1;exitDx=0;exitDy=0;entryX=0;entryY=0.5;entryDx=0;entryDy=0;" edge="1" parent="77e6c97f196da883-1" source="tVxDg_vbg_Na7_TElJBm-6" target="tVxDg_vbg_Na7_TElJBm-8">
          <mxGeometry width="50" height="50" relative="1" as="geometry">
            <mxPoint x="300" y="380" as="sourcePoint" />
            <mxPoint x="250" y="400" as="targetPoint" />
            <Array as="points">
              <mxPoint x="250" y="400" />
            </Array>
          </mxGeometry>
        </mxCell>
        <mxCell id="tVxDg_vbg_Na7_TElJBm-28" value="" style="endArrow=classic;html=1;rounded=0;exitX=1;exitY=0.5;exitDx=0;exitDy=0;entryX=0;entryY=0.5;entryDx=0;entryDy=0;" edge="1" parent="77e6c97f196da883-1" source="tVxDg_vbg_Na7_TElJBm-8" target="tVxDg_vbg_Na7_TElJBm-9">
          <mxGeometry width="50" height="50" relative="1" as="geometry">
            <mxPoint x="440" y="380" as="sourcePoint" />
            <mxPoint x="490" y="330" as="targetPoint" />
          </mxGeometry>
        </mxCell>
        <mxCell id="tVxDg_vbg_Na7_TElJBm-30" value="" style="endArrow=classic;html=1;rounded=0;exitX=1;exitY=0.5;exitDx=0;exitDy=0;entryX=0.5;entryY=0;entryDx=0;entryDy=0;" edge="1" parent="77e6c97f196da883-1" source="tVxDg_vbg_Na7_TElJBm-7" target="tVxDg_vbg_Na7_TElJBm-9">
          <mxGeometry width="50" height="50" relative="1" as="geometry">
            <mxPoint x="440" y="380" as="sourcePoint" />
            <mxPoint x="490" y="330" as="targetPoint" />
            <Array as="points">
              <mxPoint x="720" y="333" />
            </Array>
          </mxGeometry>
        </mxCell>
        <mxCell id="tVxDg_vbg_Na7_TElJBm-31" value="" style="endArrow=classic;html=1;rounded=0;exitX=0;exitY=0.5;exitDx=0;exitDy=0;entryX=1;entryY=0.5;entryDx=0;entryDy=0;" edge="1" parent="77e6c97f196da883-1" source="tVxDg_vbg_Na7_TElJBm-10" target="tVxDg_vbg_Na7_TElJBm-16">
          <mxGeometry width="50" height="50" relative="1" as="geometry">
            <mxPoint x="360" y="580" as="sourcePoint" />
            <mxPoint x="410" y="530" as="targetPoint" />
          </mxGeometry>
        </mxCell>
        <mxCell id="tVxDg_vbg_Na7_TElJBm-33" value="" style="endArrow=classic;html=1;rounded=0;exitX=1;exitY=0.5;exitDx=0;exitDy=0;entryX=0;entryY=0.5;entryDx=0;entryDy=0;" edge="1" parent="77e6c97f196da883-1" source="tVxDg_vbg_Na7_TElJBm-17" target="tVxDg_vbg_Na7_TElJBm-11">
          <mxGeometry width="50" height="50" relative="1" as="geometry">
            <mxPoint x="360" y="680" as="sourcePoint" />
            <mxPoint x="410" y="630" as="targetPoint" />
          </mxGeometry>
        </mxCell>
        <mxCell id="tVxDg_vbg_Na7_TElJBm-36" value="" style="endArrow=classic;html=1;rounded=0;exitX=1;exitY=0.5;exitDx=0;exitDy=0;" edge="1" parent="77e6c97f196da883-1" source="77e6c97f196da883-8" target="77e6c97f196da883-11">
          <mxGeometry width="50" height="50" relative="1" as="geometry">
            <mxPoint x="120" y="480" as="sourcePoint" />
            <mxPoint x="170" y="430" as="targetPoint" />
          </mxGeometry>
        </mxCell>
        <mxCell id="egZM-A-JcMTh_OU8PHyn-3" style="edgeStyle=orthogonalEdgeStyle;rounded=0;orthogonalLoop=1;jettySize=auto;html=1;exitX=0;exitY=0.5;exitDx=0;exitDy=0;entryX=1;entryY=0.5;entryDx=0;entryDy=0;" edge="1" parent="77e6c97f196da883-1" source="tVxDg_vbg_Na7_TElJBm-15" target="egZM-A-JcMTh_OU8PHyn-1">
          <mxGeometry relative="1" as="geometry" />
        </mxCell>
        <mxCell id="tVxDg_vbg_Na7_TElJBm-27" value="" style="endArrow=classic;html=1;rounded=0;entryX=1;entryY=0.5;entryDx=0;entryDy=0;" edge="1" parent="1" target="tVxDg_vbg_Na7_TElJBm-15">
          <mxGeometry width="50" height="50" relative="1" as="geometry">
            <mxPoint x="790" y="530" as="sourcePoint" />
            <mxPoint x="560" y="370" as="targetPoint" />
          </mxGeometry>
        </mxCell>
      </root>
    </mxGraphModel>
  </diagram>
</mxfile>
